# xmcd CD database file
#
# Track frame offsets:
#	150
#	30200
#	60792
#	97063
#	134492
#	181747
#	214243
#	239814
#
# Disc length: 3833 seconds
#
# Revision: 0
# Processed by: cddbd v1.5.2PL0 Copyright (c) Steve Scherf et al.
# Submitted via: CDex 1.51
#
DISCID=690ef708
DTITLE=David Liebman and Michael Gerber - Souls and Masters
DYEAR=1999
DGENRE=Jazz
TTITLE0=Sciarrone
TTITLE1=For Nanda
TTITLE2=Souls And Masters
TTITLE3=The Empress
TTITLE4=Aurora's Dance
TTITLE5=Trane
TTITLE6=Cinnamon Tree
TTITLE7=Misinformation
EXTD=YEAR: 1999
EXTT0=
EXTT1=
EXTT2=
EXTT3=
EXTT4=
EXTT5=
EXTT6=
EXTT7=
PLAYORDER=
